<svg width="88" height="88" viewBox="0 0 88 88" fill="none" xmlns="http://www.w3.org/2000/svg">
<circle cx="44" cy="44" r="42" stroke="white" stroke-width="4"/>
<path d="M28.5234 31.6938V51.6H24.7637V31.6938H28.5234ZM48.7031 41.141V42.1664C48.7031 43.6703 48.5026 45.0238 48.1016 46.227C47.7005 47.421 47.1309 48.4372 46.3926 49.2758C45.6543 50.1143 44.7747 50.7569 43.7539 51.2035C42.7331 51.6501 41.5983 51.8734 40.3496 51.8734C39.1191 51.8734 37.9889 51.6501 36.959 51.2035C35.9381 50.7569 35.054 50.1143 34.3066 49.2758C33.5592 48.4372 32.9805 47.421 32.5703 46.227C32.1602 45.0238 31.9551 43.6703 31.9551 42.1664V41.141C31.9551 39.628 32.1602 38.2745 32.5703 37.0805C32.9805 35.8865 33.5547 34.8702 34.293 34.0316C35.0312 33.184 35.9108 32.5369 36.9316 32.0902C37.9616 31.6436 39.0918 31.4203 40.3223 31.4203C41.571 31.4203 42.7057 31.6436 43.7266 32.0902C44.7474 32.5369 45.6269 33.184 46.3652 34.0316C47.1126 34.8702 47.6868 35.8865 48.0879 37.0805C48.498 38.2745 48.7031 39.628 48.7031 41.141ZM44.9023 42.1664V41.1137C44.9023 40.029 44.8021 39.0766 44.6016 38.2563C44.401 37.4268 44.1048 36.7296 43.7129 36.1645C43.321 35.5994 42.8379 35.1755 42.2637 34.893C41.6894 34.6013 41.0423 34.4555 40.3223 34.4555C39.5931 34.4555 38.946 34.6013 38.3809 34.893C37.8249 35.1755 37.3509 35.5994 36.959 36.1645C36.5671 36.7296 36.2663 37.4268 36.0566 38.2563C35.8561 39.0766 35.7559 40.029 35.7559 41.1137V42.1664C35.7559 43.2419 35.8561 44.1944 36.0566 45.0238C36.2663 45.8533 36.5671 46.5551 36.959 47.1293C37.36 47.6944 37.8431 48.1228 38.4082 48.4145C38.9733 48.7061 39.6204 48.852 40.3496 48.852C41.0788 48.852 41.7259 48.7061 42.291 48.4145C42.8561 48.1228 43.3301 47.6944 43.7129 47.1293C44.1048 46.5551 44.401 45.8533 44.6016 45.0238C44.8021 44.1944 44.9023 43.2419 44.9023 42.1664ZM55.6484 31.6938V51.6H51.8887V31.6938H55.6484ZM63.6738 40.2934V43.2602H54.6641V40.2934H63.6738ZM64.7266 31.6938V34.6606H54.6641V31.6938H64.7266Z" fill="white"/>
</svg>
